<svg width="33" height="33" viewBox="0 0 33 33" fill="none" xmlns="http://www.w3.org/2000/svg">
<g id="github" clip-path="url(#clip0_25_438)">
<path id="Vector" d="M11.3453 25.8053C11.3453 25.9303 11.2016 26.0303 11.0203 26.0303C10.8141 26.049 10.6703 25.949 10.6703 25.8053C10.6703 25.6803 10.8141 25.5803 10.9953 25.5803C11.1828 25.5615 11.3453 25.6615 11.3453 25.8053ZM9.40156 25.524C9.35781 25.649 9.48281 25.7928 9.67031 25.8303C9.83281 25.8928 10.0203 25.8303 10.0578 25.7053C10.0953 25.5803 9.97656 25.4365 9.78906 25.3803C9.62656 25.3365 9.44531 25.399 9.40156 25.524ZM12.1641 25.4178C11.9828 25.4615 11.8578 25.5803 11.8766 25.724C11.8953 25.849 12.0578 25.9303 12.2453 25.8865C12.4266 25.8428 12.5516 25.724 12.5328 25.599C12.5141 25.4803 12.3453 25.399 12.1641 25.4178ZM16.2766 1.46777C7.60781 1.46777 0.976562 8.04902 0.976562 16.7178C0.976562 23.649 5.33906 29.5803 11.5703 31.6678C12.3703 31.8115 12.6516 31.3178 12.6516 30.9115C12.6516 30.524 12.6328 28.3865 12.6328 27.074C12.6328 27.074 8.25781 28.0115 7.33906 25.2115C7.33906 25.2115 6.62656 23.3928 5.60156 22.924C5.60156 22.924 4.17031 21.9428 5.70156 21.9615C5.70156 21.9615 7.25781 22.0865 8.11406 23.574C9.48281 25.9865 11.7766 25.2928 12.6703 24.8803C12.8141 23.8803 13.2203 23.1865 13.6703 22.774C10.1766 22.3865 6.65156 21.8803 6.65156 15.8678C6.65156 14.149 7.12656 13.2865 8.12656 12.1865C7.96406 11.7803 7.43281 10.1053 8.28906 7.94277C9.59531 7.53652 12.6016 9.63027 12.6016 9.63027C13.8516 9.28027 15.1953 9.09902 16.5266 9.09902C17.8578 9.09902 19.2016 9.28027 20.4516 9.63027C20.4516 9.63027 23.4578 7.53027 24.7641 7.94277C25.6203 10.1115 25.0891 11.7803 24.9266 12.1865C25.9266 13.2928 26.5391 14.1553 26.5391 15.8678C26.5391 21.899 22.8578 22.3803 19.3641 22.774C19.9391 23.2678 20.4266 24.2053 20.4266 25.674C20.4266 27.7803 20.4078 30.3865 20.4078 30.899C20.4078 31.3053 20.6953 31.799 21.4891 31.6553C27.7391 29.5803 31.9766 23.649 31.9766 16.7178C31.9766 8.04902 24.9453 1.46777 16.2766 1.46777ZM7.05156 23.024C6.97031 23.0865 6.98906 23.2303 7.09531 23.349C7.19531 23.449 7.33906 23.4928 7.42031 23.4115C7.50156 23.349 7.48281 23.2053 7.37656 23.0865C7.27656 22.9865 7.13281 22.9428 7.05156 23.024ZM6.37656 22.5178C6.33281 22.599 6.39531 22.699 6.52031 22.7615C6.62031 22.824 6.74531 22.8053 6.78906 22.7178C6.83281 22.6365 6.77031 22.5365 6.64531 22.474C6.52031 22.4365 6.42031 22.4553 6.37656 22.5178ZM8.40156 24.7428C8.30156 24.824 8.33906 25.0115 8.48281 25.1303C8.62656 25.274 8.80781 25.2928 8.88906 25.1928C8.97031 25.1115 8.93281 24.924 8.80781 24.8053C8.67031 24.6615 8.48281 24.6428 8.40156 24.7428ZM7.68906 23.824C7.58906 23.8865 7.58906 24.049 7.68906 24.1928C7.78906 24.3365 7.95781 24.399 8.03906 24.3365C8.13906 24.2553 8.13906 24.0928 8.03906 23.949C7.95156 23.8053 7.78906 23.7428 7.68906 23.824Z" fill="#6d0d96"/>
</g>
<defs>
<clipPath id="clip0_25_438">
<rect width="32" height="32" fill="white" transform="translate(0.476562 0.967773)"/>
</clipPath>
</defs>
</svg>
