<svg width="33" height="33" viewBox="0 0 33 33" fill="none" xmlns="http://www.w3.org/2000/svg">
<g id="linkedin">
<path id="Vector" d="M28.4766 2.96777H4.47031C3.37031 2.96777 2.47656 3.87402 2.47656 4.98652V28.949C2.47656 30.0615 3.37031 30.9678 4.47031 30.9678H28.4766C29.5766 30.9678 30.4766 30.0615 30.4766 28.949V4.98652C30.4766 3.87402 29.5766 2.96777 28.4766 2.96777ZM10.9391 26.9678H6.78906V13.6053H10.9453V26.9678H10.9391ZM8.86406 11.7803C7.53281 11.7803 6.45781 10.699 6.45781 9.37402C6.45781 8.04902 7.53281 6.96777 8.86406 6.96777C10.1891 6.96777 11.2703 8.04902 11.2703 9.37402C11.2703 10.7053 10.1953 11.7803 8.86406 11.7803ZM26.4953 26.9678H22.3453V20.4678C22.3453 18.9178 22.3141 16.924 20.1891 16.924C18.0266 16.924 17.6953 18.6115 17.6953 20.3553V26.9678H13.5453V13.6053H17.5266V15.4303H17.5828C18.1391 14.3803 19.4953 13.274 21.5141 13.274C25.7141 13.274 26.4953 16.0428 26.4953 19.6428V26.9678Z" fill="#6d0d96"/>
</g>
</svg>
